Simulation
nRows=32
nColumns=15
endheader
time  TH_x TH_y TH_z SC_y  SC_z  SC_x  AC_y  AC_z  AC_x  GH_y  GH_z  GH_yy  EL_x  PS_y
2.8725  0.000000  0.000000  0.000000  -38.296927863842825  -2.663601793019226  -20.902406892100302  28.430462620294392  16.1576665348709  1.5338745884728122  3.1672524643514586  71.55436701270168  44.49523518519817  20.877056265001958  120.000000
2.92995  0.000000  0.000000  0.000000  -27.045919140975098  1.2558972691873698  -27.161394383140525  38.907995967353905  5.666517148875176  11.455794670373987  -34.117044265111055  71.47266094679432  7.026932475590391  32.74178875296874  120.000000
2.9874  0.000000  0.000000  0.000000  -37.031804567163604  23.428899739584658  -16.73679680461024  27.953190957223885  19.220878268413074  25.051216704750402  -140.2222550479258  29.72625432001844  116.49212045345482  27.31550076573214  120.000000
3.0448500000000003  0.000000  0.000000  0.000000  -46.83809471050455  4.883147257158264  -1.0089404425989574  48.66420981111972  16.98449822794015  11.716967794396414  -152.2775273462641  22.71218889588645  137.56933818447922  27.353445006797113  120.000000
3.1023  0.000000  0.000000  0.000000  -38.14125024110532  3.0839116486425344  0.2901223807842283  80.83991840180985  7.866172327141357  25.461977781355937  -72.38025922752475  26.64930157350422  48.854208908360405  29.950638042277497  120.000000
3.15975  0.000000  0.000000  0.000000  -43.952317681716664  17.74106018129137  -10.616206303092074  55.75382240125726  16.201804030930667  33.70970050425052  70.3387912571178  9.62140098323146  -93.26715845268622  22.785061491667367  120.000000
3.2172  0.000000  0.000000  0.000000  -53.906679430974975  21.041666161370472  -9.586788672239999  39.44766418087807  8.896655395580666  15.228460312031984  89.32712923458757  62.98740787315196  -114.95930347446135  9.08114675654765  120.000000
3.2746500000000003  0.000000  0.000000  0.000000  -51.96566995019638  7.283518005107885  0.06430153664493556  42.45695564130214  1.1298691584576632  2.2090654406982693  65.81493117579404  80.180924573434  -94.6645726041436  6.92688311589564  120.000000
3.3321  0.000000  0.000000  0.000000  -37.01450514310327  2.393010337531384  9.177791903401708  39.373235034339075  -15.377283341879272  -12.760780138833097  28.258226462624833  101.16651860338283  -61.63531142541199  7.964035144809894  120.000000
3.38955  0.000000  0.000000  0.000000  -35.291902529368244  -1.4725421783099437  24.698761499894328  55.30729752834548  -22.28013617288074  0.1330610053173997  3.9692562606762936  71.67473307299015  45.35260403851533  7.59773591957819  120.000000
3.447  0.000000  0.000000  0.000000  -45.115018776017195  2.9211516553270003  20.68414105595845  76.32001993249122  -8.296961484971831  17.84019181080088  4.024388260901793  71.59984361206725  45.55549735834903  12.183560358637028  120.000000
3.5044500000000003  0.000000  0.000000  0.000000  -53.06360939924857  -0.7414175863264072  0.09440024296517457  41.13588193762548  2.8421582316610987  -8.925732810561408  78.43628014289486  93.20583836647567  -30.177160309628835  5.71221758445676  120.000000
3.5619  0.000000  0.000000  0.000000  -51.47728616420242  -10.493487464910961  2.5004071561838486  46.52620170271463  6.193527140835832  -11.8804244893733  63.86409239981156  102.61378944222115  -42.94498834293351  15.244397790632895  120.000000
3.61935  0.000000  0.000000  0.000000  -36.88944233910008  -2.7411757497441616  -5.379305700487329  68.2721190937922  7.64204805189918  17.977623602443796  24.05801438606817  88.99300836595664  -54.14573439142342  25.82743609172022  120.000000
3.6768  0.000000  0.000000  0.000000  -44.65122879772787  3.0283715799469726  -25.510006767928473  72.0122963828822  11.266110578669862  39.30320224194008  19.98578064345306  80.8556186744514  -49.33980686290196  21.43706924749742  120.000000
3.7342500000000003  0.000000  0.000000  0.000000  -54.07280898675477  8.332278525712296  -23.607595633626715  58.225731546555394  23.85634292918215  25.466018975909297  52.28816273657524  46.795882345683424  -76.61261781486922  15.294740871152676  120.000000
3.7917  0.000000  0.000000  0.000000  -52.758703526072544  6.177071687132416  4.102748628761312  71.40800051675319  33.60832675353811  23.53904799932865  115.593078710975  18.19728870380781  -137.99855664907713  6.105281010830618  120.000000
3.84915  0.000000  0.000000  0.000000  -60.586878438929126  15.25488680687162  11.027025009475258  68.36514046140798  22.88731102030084  31.175661140566863  132.32580746708487  15.320668955670843  -154.08532535323127  7.376598962560965  120.000000
3.9066  0.000000  0.000000  0.000000  -54.131992161862755  21.664089300308895  6.645096444959485  44.4412578344636  -12.832194495689274  7.3502914745383885  43.795538173563294  48.16267685843419  -68.6844397272146  20.446763341911044  120.000000
3.9640500000000003  0.000000  0.000000  0.000000  -41.62855379127759  3.176939328469349  13.10718640866918  38.582661638950896  -13.718557985096075  -14.177056500942788  25.27827083932343  89.6446842002238  -56.054584104158444  13.552877293095094  120.000000
4.0215  0.000000  0.000000  0.000000  -43.701360678607436  -9.797886359740346  19.585924890651047  49.89055326230158  -1.6066944694753702  -18.21233386508786  27.98313778619978  99.59302104954436  -60.47378179507115  14.417646456385233  120.000000
4.07895  0.000000  0.000000  0.000000  -49.828074967242166  -8.583478002571422  25.22687344697402  57.036452809726434  -10.508098154880495  -14.876921740296806  33.77580680291438  107.42233485665751  -64.21422291274969  19.41512989513244  120.000000
4.1364  0.000000  0.000000  0.000000  -59.55084423463255  11.49303769446571  32.58357550623666  40.30239637791224  -9.594732721964455  -15.897729789524083  73.00685878205802  106.66900950152016  -31.61132345345961  5.21366517300855  120.000000
4.19385  0.000000  0.000000  0.000000  -52.91733333312641  14.952578840902365  36.989854458769365  43.612377706953644  -12.729860215619027  -14.09219808742943  69.30286151973978  108.83498570518198  -32.91338065951401  6.013738485654963  120.000000
4.2513000000000005  0.000000  0.000000  0.000000  -43.1050113369151  7.423999406690259  32.77670457939898  47.2534220613398  -19.04195818075517  -8.961434382858354  56.28168261126497  113.5127010758683  -41.97060820106468  16.127962914321728  120.000000
4.30875  0.000000  0.000000  0.000000  -57.170534520425406  22.913372493453185  38.65428941370137  52.575727104095854  -14.992827842283763  3.4852095695077194  65.74433846181215  89.8707340346001  -12.700724606256742  8.368384631523558  120.000000
4.3662  0.000000  0.000000  0.000000  -49.59995726127358  27.063448669896054  21.693836016006586  60.07522609653372  -9.39291609789264  23.118465772830866  61.4963504164491  84.76278196044149  -10.159069945651723  7.249673285382748  120.000000
4.42365  0.000000  0.000000  0.000000  -44.66913218032441  13.912276540001205  17.114661611727502  69.83717906742756  -3.825895594891023  26.328833502560695  57.44247033535932  87.76095069416873  -73.62993725836337  12.643911457690733  120.000000
4.4811  0.000000  0.000000  0.000000  -69.20693174745506  4.360097375859479  35.506592951596  73.19513657919022  24.401421866624474  10.383179944650342  89.47371516071637  80.99616751009006  -116.64086183934378  9.844615692184188  120.000000
4.53855  0.000000  0.000000  0.000000  -61.97221924797795  8.574251111153849  13.0030468141532  55.758795190845355  11.79497252818283  8.794538417614667  107.20368634784698  81.69621159340593  -101.17807293325876  21.54403107340619  120.000000
4.596  0.000000  0.000000  0.000000  -37.90647359896204  6.459523035601026  -2.9957071519695986  41.15676260646531  -9.623612885120158  -0.7223584930656877  94.6970977192021  73.91636022708474  -108.40057459041455  32.11637389142064  120.000000
4.65345  0.000000  0.000000  0.000000  -55.281197007658434  9.67038364195856  14.425698768986269  46.45630001989304  15.226730438696416  2.4895982217692816  108.14248233195923  57.79608585584711  -108.67691592285577  27.995726013352307  120.000000
